<svg xmlns="http://www.w3.org/2000/svg" viewBox="0 0 24 24" fill="none" aria-hidden="true" class="sc-15iua2v-0 dIfPYi"><path d="M15 6h1.5c.398 0 .78.164 1.06.456.282.291.44.687.44 1.1v10.888c0 .413-.158.809-.44 1.1A1.474 1.474 0 0 1 16.5 20h-9c-.398 0-.78-.164-1.06-.456a1.585 1.585 0 0 1-.44-1.1V7.556c0-.413.158-.809.44-1.1A1.473 1.473 0 0 1 7.5 6H9" stroke="#000" stroke-width="2" stroke-linecap="round" stroke-linejoin="round" class="colorStroke"/><path d="M14.25 4h-4.5a.75.75 0 0 0-.75.75v1.5c0 .414.336.75.75.75h4.5a.75.75 0 0 0 .75-.75v-1.5a.75.75 0 0 0-.75-.75zM9 11h6m-6 4h3.75" stroke="#000" stroke-width="2" stroke-linecap="round" stroke-linejoin="round" class="colorStroke"/></svg>