<svg xmlns="http://www.w3.org/2000/svg" viewBox="0 0 24 24" fill="none" aria-hidden="true" class="sc-15iua2v-0 dIfPYi"><path d="M5 11.913h2.301a1 1 0 0 1 .907.577l.901 1.933a1 1 0 0 0 .906.577H14a1 1 0 0 0 .909-.582l.885-1.923a1 1 0 0 1 .908-.582H19l-1.875-5.25A1 1 0 0 0 16.183 6H7.817a1 1 0 0 0-.942.664L5 11.913z" stroke="#000" stroke-width="2" stroke-miterlimit="10" stroke-linejoin="round" class="colorStroke"/><path d="M19 12v5a2 2 0 0 1-2 2H7a2 2 0 0 1-2-2v-5" stroke="#000" stroke-width="2" stroke-miterlimit="10" stroke-linecap="round" stroke-linejoin="round" class="colorStroke"/><path d="m9 9 3 3 3-3" stroke="#000" stroke-width="2" stroke-linecap="round" stroke-linejoin="round" class="colorStroke"/><path d="M12 11V3" stroke="#000" stroke-width="2" stroke-linecap="round" class="colorStroke"/></svg>