<svg xmlns="http://www.w3.org/2000/svg" viewBox="0 0 24 24" fill="none" aria-hidden="true" class="sc-15iua2v-0 dIfPYi"><path d="M12 21a9 9 0 1 0 0-18 9 9 0 0 0 0 18z" stroke="#000" stroke-width="2" stroke-linecap="round" stroke-linejoin="round" class="colorStroke"/><path d="M17 19v-1.54c0-.786-.281-1.538-.781-2.093-.5-.555-1.178-.867-1.886-.867H9.667c-.708 0-1.386.312-1.886.867A3.131 3.131 0 0 0 7 17.459V19m5-7.5a3 3 0 1 0 0-6 3 3 0 0 0 0 6z" stroke="#000" stroke-width="2" stroke-linecap="round" stroke-linejoin="round" class="colorStroke"/></svg>