<svg xmlns="http://www.w3.org/2000/svg" viewBox="0 0 24 24" fill="none" aria-hidden="true" class="sc-15iua2v-0 dIfPYi"><path d="M17.333 8.6c0-1.485-.562-2.91-1.562-3.96A5.208 5.208 0 0 0 12 3c-1.415 0-2.771.59-3.771 1.64A5.745 5.745 0 0 0 6.667 8.6C6.667 15.133 4 17 4 17h16s-2.667-1.867-2.667-8.4zM14 20a2.186 2.186 0 0 1-.846.732A2.588 2.588 0 0 1 12 21c-.405 0-.803-.092-1.154-.268A2.186 2.186 0 0 1 10 20" stroke="#000" stroke-width="2" stroke-linecap="round" stroke-linejoin="round" class="colorStroke"/></svg>