<svg xmlns="http://www.w3.org/2000/svg" viewBox="0 0 24 24" fill="none" aria-hidden="true" class="sc-15iua2v-0 dIfPYi"><path d="M2 10.884h3.58a1 1 0 0 1 .894.553l1.505 3.01a1 1 0 0 0 .894.553h6.277a1 1 0 0 0 .897-.558l1.48-3a1 1 0 0 1 .897-.558H22l-2.772-7.241A1 1 0 0 0 18.294 3H5.706a1 1 0 0 0-.934.643L2 10.884Z" stroke="#000" stroke-width="2" stroke-miterlimit="10" stroke-linejoin="round" class="colorStroke"/><path d="M22 11v8a2 2 0 0 1-2 2H4a2 2 0 0 1-2-2v-8" stroke="#000" stroke-width="2" stroke-miterlimit="10" stroke-linecap="round" stroke-linejoin="round" class="colorStroke"/></svg>