<svg xmlns="http://www.w3.org/2000/svg" viewBox="0 0 24 24" fill="none" aria-hidden="true" class="sc-15iua2v-0 dIfPYi"><path d="M20.335 3.905c2.274 2.274 3.425 5.004 3.425 8.161 0 3.184-1.151 5.887-3.425 8.161-2.274 2.275-5.057 3.425-8.348 3.425-3.265 0-6.048-1.15-8.322-3.425C1.391 17.953.24 15.223.24 12.066s1.151-5.86 3.425-8.161C5.939 1.631 8.722.48 11.987.48c3.291 0 6.074 1.151 8.348 3.425Zm-8.348-.937c-2.409 0-4.496.883-6.262 2.649-1.766 1.766-2.649 3.907-2.649 6.449s.883 4.709 2.649 6.475 3.853 2.649 6.262 2.649c2.408 0 4.495-.883 6.261-2.649s2.649-3.906 2.649-6.475c0-2.542-.883-4.683-2.649-6.449s-3.853-2.649-6.261-2.649Z" fill="#000" class="colorFill"/><path d="M13.726 7.25h-3.452v3.451h3.452V7.25Zm0 6.154h-3.452v3.452h3.452v-3.452Z" fill="#000" class="colorFill"/></svg>